<mxfile host="app.diagrams.net" modified="2021-03-24T11:30:43.448Z" agent="5.0 (Windows NT 10.0; Win64; x64) AppleWebKit/537.36 (KHTML, like Gecko) Chrome/89.0.4389.90 Safari/537.36" etag="jTVpFerbGFM94ST3TmDZ" version="14.5.1" type="github">
  <diagram id="jZFMj2K4_JGq3fAnLhk-" name="第 1 页">
    <mxGraphModel dx="1221" dy="682" grid="1" gridSize="10" guides="1" tooltips="1" connect="1" arrows="1" fold="1" page="1" pageScale="1" pageWidth="1169" pageHeight="827" math="0" shadow="0">
      <root>
        <mxCell id="0" />
        <mxCell id="1" parent="0" />
        <mxCell id="Ug8McBro-mjewhibWhuq-3" style="edgeStyle=orthogonalEdgeStyle;rounded=1;orthogonalLoop=1;jettySize=auto;html=1;entryX=0;entryY=0.5;entryDx=0;entryDy=0;entryPerimeter=0;strokeWidth=3;" edge="1" parent="1" source="Ug8McBro-mjewhibWhuq-1" target="Ug8McBro-mjewhibWhuq-11">
          <mxGeometry relative="1" as="geometry">
            <mxPoint x="540" y="89.3" as="targetPoint" />
          </mxGeometry>
        </mxCell>
        <mxCell id="Ug8McBro-mjewhibWhuq-1" value="&lt;b&gt;客户端浏览器&lt;/b&gt;" style="dashed=0;outlineConnect=0;html=1;align=center;labelPosition=center;verticalLabelPosition=bottom;verticalAlign=top;shape=mxgraph.weblogos.chrome" vertex="1" parent="1">
          <mxGeometry x="250" y="51.3" width="74.8" height="75.4" as="geometry" />
        </mxCell>
        <mxCell id="Ug8McBro-mjewhibWhuq-7" style="edgeStyle=orthogonalEdgeStyle;rounded=1;orthogonalLoop=1;jettySize=auto;html=1;strokeWidth=3;" edge="1" parent="1" target="Ug8McBro-mjewhibWhuq-6">
          <mxGeometry relative="1" as="geometry">
            <mxPoint x="570" y="129.3" as="sourcePoint" />
          </mxGeometry>
        </mxCell>
        <mxCell id="Ug8McBro-mjewhibWhuq-9" style="edgeStyle=orthogonalEdgeStyle;rounded=0;orthogonalLoop=1;jettySize=auto;html=1;strokeWidth=3;entryX=0.5;entryY=0;entryDx=0;entryDy=0;entryPerimeter=0;" edge="1" parent="1" source="Ug8McBro-mjewhibWhuq-6" target="Ug8McBro-mjewhibWhuq-31">
          <mxGeometry relative="1" as="geometry">
            <mxPoint x="570" y="331.29999999999995" as="targetPoint" />
          </mxGeometry>
        </mxCell>
        <mxCell id="Ug8McBro-mjewhibWhuq-6" value="&lt;b&gt;labeltask-front&lt;/b&gt;" style="aspect=fixed;perimeter=ellipsePerimeter;html=1;align=center;shadow=0;dashed=0;fontColor=#4277BB;labelBackgroundColor=#ffffff;fontSize=12;spacingTop=3;image;image=img/lib/ibm/infrastructure/channels.svg;" vertex="1" parent="1">
          <mxGeometry x="530" y="191.3" width="80" height="80" as="geometry" />
        </mxCell>
        <mxCell id="Ug8McBro-mjewhibWhuq-23" style="edgeStyle=orthogonalEdgeStyle;rounded=1;orthogonalLoop=1;jettySize=auto;html=1;exitX=0.5;exitY=1;exitDx=0;exitDy=0;exitPerimeter=0;entryX=0.5;entryY=0;entryDx=0;entryDy=0;entryPerimeter=0;strokeWidth=3;" edge="1" parent="1" source="Ug8McBro-mjewhibWhuq-10" target="Ug8McBro-mjewhibWhuq-14">
          <mxGeometry relative="1" as="geometry" />
        </mxCell>
        <mxCell id="Ug8McBro-mjewhibWhuq-24" style="edgeStyle=orthogonalEdgeStyle;rounded=1;orthogonalLoop=1;jettySize=auto;html=1;exitX=0.5;exitY=1;exitDx=0;exitDy=0;exitPerimeter=0;entryX=0.5;entryY=0;entryDx=0;entryDy=0;entryPerimeter=0;strokeWidth=3;" edge="1" parent="1" source="Ug8McBro-mjewhibWhuq-10" target="Ug8McBro-mjewhibWhuq-15">
          <mxGeometry relative="1" as="geometry" />
        </mxCell>
        <mxCell id="Ug8McBro-mjewhibWhuq-10" value="&lt;span style=&quot;color: rgb(66 , 119 , 187) ; background-color: rgb(255 , 255 , 255)&quot;&gt;&lt;b&gt;labeltask-control&lt;/b&gt;&lt;/span&gt;" style="points=[[0,0,0],[0.25,0,0],[0.5,0,0],[0.75,0,0],[1,0,0],[0,1,0],[0.25,1,0],[0.5,1,0],[0.75,1,0],[1,1,0],[0,0.25,0],[0,0.5,0],[0,0.75,0],[1,0.25,0],[1,0.5,0],[1,0.75,0]];outlineConnect=0;fontColor=#232F3E;gradientColor=#F78E04;gradientDirection=north;fillColor=#D05C17;strokeColor=#ffffff;dashed=0;verticalLabelPosition=bottom;verticalAlign=top;align=center;html=1;fontSize=12;fontStyle=0;aspect=fixed;shape=mxgraph.aws4.resourceIcon;resIcon=mxgraph.aws4.ecs;" vertex="1" parent="1">
          <mxGeometry x="320" y="471.3" width="78" height="78" as="geometry" />
        </mxCell>
        <mxCell id="Ug8McBro-mjewhibWhuq-11" value="&lt;b&gt;防火墙&lt;/b&gt;" style="points=[[0,0,0],[0.25,0,0],[0.5,0,0],[0.75,0,0],[1,0,0],[0,1,0],[0.25,1,0],[0.5,1,0],[0.75,1,0],[1,1,0],[0,0.25,0],[0,0.5,0],[0,0.75,0],[1,0.25,0],[1,0.5,0],[1,0.75,0]];outlineConnect=0;fontColor=#232F3E;gradientColor=#F54749;gradientDirection=north;fillColor=#C7131F;strokeColor=#ffffff;dashed=0;verticalLabelPosition=bottom;verticalAlign=top;align=center;html=1;fontSize=12;fontStyle=0;aspect=fixed;shape=mxgraph.aws4.resourceIcon;resIcon=mxgraph.aws4.firewall_manager;labelBackgroundColor=#ffffff;" vertex="1" parent="1">
          <mxGeometry x="531" y="50" width="78" height="78" as="geometry" />
        </mxCell>
        <mxCell id="Ug8McBro-mjewhibWhuq-25" style="edgeStyle=orthogonalEdgeStyle;rounded=1;orthogonalLoop=1;jettySize=auto;html=1;entryX=0.5;entryY=0;entryDx=0;entryDy=0;entryPerimeter=0;strokeWidth=3;" edge="1" parent="1" source="Ug8McBro-mjewhibWhuq-12" target="Ug8McBro-mjewhibWhuq-16">
          <mxGeometry relative="1" as="geometry" />
        </mxCell>
        <mxCell id="Ug8McBro-mjewhibWhuq-27" style="edgeStyle=orthogonalEdgeStyle;rounded=1;orthogonalLoop=1;jettySize=auto;html=1;exitX=0.5;exitY=1;exitDx=0;exitDy=0;exitPerimeter=0;entryX=0.5;entryY=0;entryDx=0;entryDy=0;entryPerimeter=0;strokeWidth=3;" edge="1" parent="1" source="Ug8McBro-mjewhibWhuq-12" target="Ug8McBro-mjewhibWhuq-15">
          <mxGeometry relative="1" as="geometry" />
        </mxCell>
        <mxCell id="Ug8McBro-mjewhibWhuq-28" style="edgeStyle=orthogonalEdgeStyle;rounded=1;orthogonalLoop=1;jettySize=auto;html=1;exitX=0.5;exitY=1;exitDx=0;exitDy=0;exitPerimeter=0;entryX=0.5;entryY=0;entryDx=0;entryDy=0;entryPerimeter=0;strokeWidth=3;" edge="1" parent="1" source="Ug8McBro-mjewhibWhuq-12" target="Ug8McBro-mjewhibWhuq-17">
          <mxGeometry relative="1" as="geometry" />
        </mxCell>
        <mxCell id="Ug8McBro-mjewhibWhuq-29" style="edgeStyle=orthogonalEdgeStyle;rounded=1;orthogonalLoop=1;jettySize=auto;html=1;exitX=0.5;exitY=1;exitDx=0;exitDy=0;exitPerimeter=0;strokeWidth=3;" edge="1" parent="1" source="Ug8McBro-mjewhibWhuq-12">
          <mxGeometry relative="1" as="geometry">
            <mxPoint x="980" y="610" as="targetPoint" />
          </mxGeometry>
        </mxCell>
        <mxCell id="Ug8McBro-mjewhibWhuq-12" value="&lt;span style=&quot;color: rgb(66 , 119 , 187) ; background-color: rgb(255 , 255 , 255)&quot;&gt;&lt;b&gt;labeladmin-control&lt;/b&gt;&lt;/span&gt;" style="points=[[0,0,0],[0.25,0,0],[0.5,0,0],[0.75,0,0],[1,0,0],[0,1,0],[0.25,1,0],[0.5,1,0],[0.75,1,0],[1,1,0],[0,0.25,0],[0,0.5,0],[0,0.75,0],[1,0.25,0],[1,0.5,0],[1,0.75,0]];outlineConnect=0;fontColor=#232F3E;gradientColor=#F78E04;gradientDirection=north;fillColor=#D05C17;strokeColor=#ffffff;dashed=0;verticalLabelPosition=bottom;verticalAlign=top;align=center;html=1;fontSize=12;fontStyle=0;aspect=fixed;shape=mxgraph.aws4.resourceIcon;resIcon=mxgraph.aws4.ecs;" vertex="1" parent="1">
          <mxGeometry x="532" y="471.3" width="78" height="78" as="geometry" />
        </mxCell>
        <mxCell id="Ug8McBro-mjewhibWhuq-26" style="edgeStyle=orthogonalEdgeStyle;rounded=1;orthogonalLoop=1;jettySize=auto;html=1;exitX=0.5;exitY=1;exitDx=0;exitDy=0;exitPerimeter=0;entryX=0.5;entryY=0;entryDx=0;entryDy=0;entryPerimeter=0;strokeWidth=3;" edge="1" parent="1" source="Ug8McBro-mjewhibWhuq-13" target="Ug8McBro-mjewhibWhuq-18">
          <mxGeometry relative="1" as="geometry" />
        </mxCell>
        <mxCell id="Ug8McBro-mjewhibWhuq-30" style="edgeStyle=orthogonalEdgeStyle;rounded=1;orthogonalLoop=1;jettySize=auto;html=1;exitX=0.5;exitY=1;exitDx=0;exitDy=0;exitPerimeter=0;strokeWidth=3;" edge="1" parent="1" source="Ug8McBro-mjewhibWhuq-13">
          <mxGeometry relative="1" as="geometry">
            <mxPoint x="610" y="610" as="targetPoint" />
          </mxGeometry>
        </mxCell>
        <mxCell id="Ug8McBro-mjewhibWhuq-13" value="&lt;span style=&quot;color: rgb(66 , 119 , 187) ; background-color: rgb(255 , 255 , 255)&quot;&gt;&lt;b&gt;crowd-template-control&lt;/b&gt;&lt;/span&gt;" style="points=[[0,0,0],[0.25,0,0],[0.5,0,0],[0.75,0,0],[1,0,0],[0,1,0],[0.25,1,0],[0.5,1,0],[0.75,1,0],[1,1,0],[0,0.25,0],[0,0.5,0],[0,0.75,0],[1,0.25,0],[1,0.5,0],[1,0.75,0]];outlineConnect=0;fontColor=#232F3E;gradientColor=#F78E04;gradientDirection=north;fillColor=#D05C17;strokeColor=#ffffff;dashed=0;verticalLabelPosition=bottom;verticalAlign=top;align=center;html=1;fontSize=12;fontStyle=0;aspect=fixed;shape=mxgraph.aws4.resourceIcon;resIcon=mxgraph.aws4.ecs;" vertex="1" parent="1">
          <mxGeometry x="730" y="471.3" width="78" height="78" as="geometry" />
        </mxCell>
        <mxCell id="Ug8McBro-mjewhibWhuq-14" value="&lt;span style=&quot;color: rgb(66 , 119 , 187) ; background-color: rgb(255 , 255 , 255)&quot;&gt;&lt;b&gt;labeltask-core&lt;/b&gt;&lt;/span&gt;" style="points=[[0,0,0],[0.25,0,0],[0.5,0,0],[0.75,0,0],[1,0,0],[0,1,0],[0.25,1,0],[0.5,1,0],[0.75,1,0],[1,1,0],[0,0.25,0],[0,0.5,0],[0,0.75,0],[1,0.25,0],[1,0.5,0],[1,0.75,0]];outlineConnect=0;fontColor=#232F3E;gradientColor=#F78E04;gradientDirection=north;fillColor=#D05C17;strokeColor=#ffffff;dashed=0;verticalLabelPosition=bottom;verticalAlign=top;align=center;html=1;fontSize=12;fontStyle=0;aspect=fixed;shape=mxgraph.aws4.resourceIcon;resIcon=mxgraph.aws4.ecs;" vertex="1" parent="1">
          <mxGeometry x="200" y="611.3" width="78" height="78" as="geometry" />
        </mxCell>
        <mxCell id="Ug8McBro-mjewhibWhuq-15" value="&lt;span style=&quot;color: rgb(66 , 119 , 187) ; background-color: rgb(255 , 255 , 255)&quot;&gt;&lt;b&gt;labelqueue-core&lt;/b&gt;&lt;/span&gt;" style="points=[[0,0,0],[0.25,0,0],[0.5,0,0],[0.75,0,0],[1,0,0],[0,1,0],[0.25,1,0],[0.5,1,0],[0.75,1,0],[1,1,0],[0,0.25,0],[0,0.5,0],[0,0.75,0],[1,0.25,0],[1,0.5,0],[1,0.75,0]];outlineConnect=0;fontColor=#232F3E;gradientColor=#F78E04;gradientDirection=north;fillColor=#D05C17;strokeColor=#ffffff;dashed=0;verticalLabelPosition=bottom;verticalAlign=top;align=center;html=1;fontSize=12;fontStyle=0;aspect=fixed;shape=mxgraph.aws4.resourceIcon;resIcon=mxgraph.aws4.ecs;" vertex="1" parent="1">
          <mxGeometry x="380" y="611.3" width="78" height="78" as="geometry" />
        </mxCell>
        <mxCell id="Ug8McBro-mjewhibWhuq-16" value="&lt;span style=&quot;color: rgb(66 , 119 , 187) ; background-color: rgb(255 , 255 , 255)&quot;&gt;&lt;b&gt;labelworkload-core&lt;/b&gt;&lt;/span&gt;" style="points=[[0,0,0],[0.25,0,0],[0.5,0,0],[0.75,0,0],[1,0,0],[0,1,0],[0.25,1,0],[0.5,1,0],[0.75,1,0],[1,1,0],[0,0.25,0],[0,0.5,0],[0,0.75,0],[1,0.25,0],[1,0.5,0],[1,0.75,0]];outlineConnect=0;fontColor=#232F3E;gradientColor=#F78E04;gradientDirection=north;fillColor=#D05C17;strokeColor=#ffffff;dashed=0;verticalLabelPosition=bottom;verticalAlign=top;align=center;html=1;fontSize=12;fontStyle=0;aspect=fixed;shape=mxgraph.aws4.resourceIcon;resIcon=mxgraph.aws4.ecs;" vertex="1" parent="1">
          <mxGeometry x="570" y="611.3" width="78" height="78" as="geometry" />
        </mxCell>
        <mxCell id="Ug8McBro-mjewhibWhuq-17" value="&lt;span style=&quot;color: rgb(66 , 119 , 187) ; background-color: rgb(255 , 255 , 255)&quot;&gt;&lt;b&gt;labeladmin-core&lt;/b&gt;&lt;/span&gt;" style="points=[[0,0,0],[0.25,0,0],[0.5,0,0],[0.75,0,0],[1,0,0],[0,1,0],[0.25,1,0],[0.5,1,0],[0.75,1,0],[1,1,0],[0,0.25,0],[0,0.5,0],[0,0.75,0],[1,0.25,0],[1,0.5,0],[1,0.75,0]];outlineConnect=0;fontColor=#232F3E;gradientColor=#F78E04;gradientDirection=north;fillColor=#D05C17;strokeColor=#ffffff;dashed=0;verticalLabelPosition=bottom;verticalAlign=top;align=center;html=1;fontSize=12;fontStyle=0;aspect=fixed;shape=mxgraph.aws4.resourceIcon;resIcon=mxgraph.aws4.ecs;" vertex="1" parent="1">
          <mxGeometry x="750" y="611.3" width="78" height="78" as="geometry" />
        </mxCell>
        <mxCell id="Ug8McBro-mjewhibWhuq-18" value="&lt;span style=&quot;color: rgb(66 , 119 , 187) ; background-color: rgb(255 , 255 , 255)&quot;&gt;&lt;b&gt;crowd-template-core&lt;/b&gt;&lt;/span&gt;" style="points=[[0,0,0],[0.25,0,0],[0.5,0,0],[0.75,0,0],[1,0,0],[0,1,0],[0.25,1,0],[0.5,1,0],[0.75,1,0],[1,1,0],[0,0.25,0],[0,0.5,0],[0,0.75,0],[1,0.25,0],[1,0.5,0],[1,0.75,0]];outlineConnect=0;fontColor=#232F3E;gradientColor=#F78E04;gradientDirection=north;fillColor=#D05C17;strokeColor=#ffffff;dashed=0;verticalLabelPosition=bottom;verticalAlign=top;align=center;html=1;fontSize=12;fontStyle=0;aspect=fixed;shape=mxgraph.aws4.resourceIcon;resIcon=mxgraph.aws4.ecs;" vertex="1" parent="1">
          <mxGeometry x="940" y="611.3" width="78" height="78" as="geometry" />
        </mxCell>
        <mxCell id="Ug8McBro-mjewhibWhuq-34" style="edgeStyle=orthogonalEdgeStyle;rounded=1;orthogonalLoop=1;jettySize=auto;html=1;exitX=0.5;exitY=1;exitDx=0;exitDy=0;exitPerimeter=0;strokeWidth=3;fontSize=13;textOpacity=0;" edge="1" parent="1" source="Ug8McBro-mjewhibWhuq-31" target="Ug8McBro-mjewhibWhuq-10">
          <mxGeometry relative="1" as="geometry" />
        </mxCell>
        <mxCell id="Ug8McBro-mjewhibWhuq-35" style="edgeStyle=orthogonalEdgeStyle;rounded=1;orthogonalLoop=1;jettySize=auto;html=1;entryX=0.5;entryY=0;entryDx=0;entryDy=0;entryPerimeter=0;strokeWidth=3;fontSize=13;" edge="1" parent="1" source="Ug8McBro-mjewhibWhuq-31" target="Ug8McBro-mjewhibWhuq-12">
          <mxGeometry relative="1" as="geometry" />
        </mxCell>
        <mxCell id="Ug8McBro-mjewhibWhuq-36" style="edgeStyle=orthogonalEdgeStyle;rounded=1;orthogonalLoop=1;jettySize=auto;html=1;exitX=0.5;exitY=1;exitDx=0;exitDy=0;exitPerimeter=0;strokeWidth=3;fontSize=13;" edge="1" parent="1" source="Ug8McBro-mjewhibWhuq-31" target="Ug8McBro-mjewhibWhuq-13">
          <mxGeometry relative="1" as="geometry" />
        </mxCell>
        <mxCell id="Ug8McBro-mjewhibWhuq-31" value="网关层" style="points=[[0,0,0],[0.25,0,0],[0.5,0,0],[0.75,0,0],[1,0,0],[0,1,0],[0.25,1,0],[0.5,1,0],[0.75,1,0],[1,1,0],[0,0.25,0],[0,0.5,0],[0,0.75,0],[1,0.25,0],[1,0.5,0],[1,0.75,0]];outlineConnect=0;fontColor=#232F3E;gradientColor=#945DF2;gradientDirection=north;fillColor=#5A30B5;strokeColor=#ffffff;dashed=0;verticalLabelPosition=bottom;verticalAlign=top;align=center;html=1;fontSize=13;fontStyle=1;aspect=fixed;shape=mxgraph.aws4.resourceIcon;resIcon=mxgraph.aws4.api_gateway;labelBorderColor=none;labelBackgroundColor=#ffffff;" vertex="1" parent="1">
          <mxGeometry x="531" y="320" width="78" height="78" as="geometry" />
        </mxCell>
      </root>
    </mxGraphModel>
  </diagram>
</mxfile>
